<svg xmlns="http://www.w3.org/2000/svg" xmlns:xlink="http://www.w3.org/1999/xlink" width="500" zoomAndPan="magnify" viewBox="0 0 375 89.999999" height="120" preserveAspectRatio="xMidYMid meet" version="1.0"><defs><g/><clipPath id="4ae636f777"><path d="M 122.621094 11 L 150.878906 11 L 150.878906 69.039062 L 122.621094 69.039062 Z M 122.621094 11 " clip-rule="nonzero"/></clipPath><clipPath id="cd273b3453"><path d="M 122.621094 11 L 136 11 L 136 69.039062 L 122.621094 69.039062 Z M 122.621094 11 " clip-rule="nonzero"/></clipPath></defs><rect x="-37.5" width="450" fill="#ffffff" y="-9" height="107.999999" fill-opacity="1"/><rect x="-37.5" width="450" fill="#000000" y="-9" height="107.999999" fill-opacity="1"/><g clip-path="url(#4ae636f777)"><path fill="#38b6ff" d="M 144.515625 11.300781 L 138.546875 27.222656 L 150.734375 25.359375 L 122.625 69.269531 L 133.070312 40.285156 L 124.363281 41.40625 L 132.078125 11.300781 Z M 144.515625 11.300781 " fill-opacity="1" fill-rule="nonzero"/></g><g clip-path="url(#cd273b3453)"><path fill="#000000" d="M 132.078125 11.300781 L 134.316406 11.300781 L 124.363281 41.40625 Z M 122.625 69.269531 L 135.3125 40.285156 L 133.070312 40.285156 Z M 122.625 69.269531 " fill-opacity="1" fill-rule="nonzero"/></g><g fill="#ffffff" fill-opacity="1"><g transform="translate(49.211865, 66.727136)"><g><path d="M 1.140625 0 L 6.984375 -54.640625 L 17.40625 -54.640625 L 12.828125 -17.46875 L 24.96875 -54.640625 L 35.390625 -54.640625 L 16.078125 0 Z M 1.140625 0 "/></g></g></g><g fill="#ffffff" fill-opacity="1"><g transform="translate(86.815032, 66.727136)"><g><path d="M 9.078125 0.515625 C 4.679688 0.515625 1.644531 -0.828125 -0.03125 -3.515625 C -1.707031 -6.210938 -1.972656 -9.992188 -0.828125 -14.859375 L 5.140625 -40.84375 C 6.242188 -45.550781 8.210938 -49.097656 11.046875 -51.484375 C 13.890625 -53.878906 17.515625 -55.078125 21.921875 -55.078125 C 26.328125 -55.078125 29.394531 -53.878906 31.125 -51.484375 C 32.863281 -49.097656 33.179688 -45.550781 32.078125 -40.84375 L 26.109375 -14.859375 C 24.960938 -9.953125 22.9375 -6.160156 20.03125 -3.484375 C 17.132812 -0.816406 13.484375 0.515625 9.078125 0.515625 Z M 11.375 -9.53125 C 12.34375 -9.53125 13.101562 -9.953125 13.65625 -10.796875 C 14.207031 -11.648438 14.65625 -12.835938 15 -14.359375 L 21.15625 -41.046875 C 21.40625 -42.222656 21.46875 -43.179688 21.34375 -43.921875 C 21.21875 -44.671875 20.664062 -45.046875 19.6875 -45.046875 C 17.875 -45.046875 16.648438 -43.671875 16.015625 -40.921875 L 9.84375 -14.296875 C 9.46875 -12.722656 9.375 -11.535156 9.5625 -10.734375 C 9.75 -9.929688 10.351562 -9.53125 11.375 -9.53125 Z M 11.375 -9.53125 "/></g></g></g><g fill="#ffffff" fill-opacity="1"><g transform="translate(125.49796, 66.727136)"><g/></g></g><g fill="#ffffff" fill-opacity="1"><g transform="translate(148.174956, 66.727136)"><g><path d="M 0.828125 0 L 10.984375 -44.09375 L 4.515625 -44.09375 L 6.921875 -54.578125 L 30.8125 -54.578125 L 28.390625 -44.09375 L 21.921875 -44.09375 L 11.75 0 Z M 0.828125 0 "/></g></g></g><g fill="#ffffff" fill-opacity="1"><g transform="translate(181.141474, 66.727136)"><g><path d="M 8.765625 -54.578125 L 25.53125 -54.578125 C 28.207031 -54.578125 30.132812 -53.972656 31.3125 -52.765625 C 32.5 -51.554688 33.09375 -49.859375 33.09375 -47.671875 C 33.09375 -45.492188 32.710938 -42.710938 31.953125 -39.328125 C 31.234375 -36.234375 30.269531 -33.816406 29.0625 -32.078125 C 27.851562 -30.347656 26.171875 -29.144531 24.015625 -28.46875 C 25.578125 -28.125 26.582031 -27.296875 27.03125 -25.984375 C 27.476562 -24.671875 27.445312 -22.890625 26.9375 -20.640625 L 22.046875 0 L 11.375 0 L 16.265625 -21.34375 C 16.640625 -22.875 16.570312 -23.847656 16.0625 -24.265625 C 15.5625 -24.691406 14.523438 -24.90625 12.953125 -24.90625 L 7.234375 0 L -3.8125 0 Z M 17.84375 -34.375 C 19.375 -34.375 20.519531 -36.023438 21.28125 -39.328125 C 21.625 -40.765625 21.804688 -41.84375 21.828125 -42.5625 C 21.847656 -43.28125 21.71875 -43.773438 21.4375 -44.046875 C 21.164062 -44.328125 20.710938 -44.46875 20.078125 -44.46875 L 17.53125 -44.46875 L 15.25 -34.375 Z M 17.84375 -34.375 "/></g></g></g><g fill="#ffffff" fill-opacity="1"><g transform="translate(219.252753, 66.727136)"><g><path d="M -5.28125 0 L 12.578125 -54.578125 L 31.0625 -54.578125 L 23.703125 0 L 13.34375 0 L 14.609375 -8.828125 L 8 -8.828125 L 5.328125 0 Z M 10.859375 -17.53125 L 15.8125 -17.53125 L 19.75 -45.296875 L 19.25 -45.296875 Z M 10.859375 -17.53125 "/></g></g></g><g fill="#ffffff" fill-opacity="1"><g transform="translate(257.872173, 66.727136)"><g><path d="M 8.765625 0.515625 C 4.785156 0.515625 1.882812 -0.734375 0.0625 -3.234375 C -1.757812 -5.734375 -2.160156 -9.164062 -1.140625 -13.53125 L 4.640625 -38.6875 C 5.910156 -44.113281 7.941406 -48.203125 10.734375 -50.953125 C 13.523438 -53.703125 17.234375 -55.078125 21.859375 -55.078125 C 25.878906 -55.078125 28.863281 -53.972656 30.8125 -51.765625 C 32.757812 -49.566406 33.242188 -46.394531 32.265625 -42.25 L 30.109375 -32.84375 L 19.25 -32.84375 L 21.15625 -40.921875 C 21.488281 -42.484375 21.539062 -43.5625 21.3125 -44.15625 C 21.082031 -44.75 20.5 -45.046875 19.5625 -45.046875 C 18.59375 -45.046875 17.84375 -44.707031 17.3125 -44.03125 C 16.78125 -43.351562 16.367188 -42.359375 16.078125 -41.046875 L 9.71875 -13.65625 C 9.425781 -12.21875 9.40625 -11.171875 9.65625 -10.515625 C 9.90625 -9.859375 10.457031 -9.53125 11.3125 -9.53125 C 13 -9.53125 14.160156 -10.90625 14.796875 -13.65625 L 17.09375 -23.5 L 28.078125 -23.5 L 25.734375 -13.21875 C 23.609375 -4.0625 17.953125 0.515625 8.765625 0.515625 Z M 8.765625 0.515625 "/></g></g></g><g fill="#ffffff" fill-opacity="1"><g transform="translate(295.792908, 66.727136)"><g><path d="M -3.8125 0 L 8.765625 -54.578125 L 19.5625 -54.578125 L 14.546875 -32.71875 L 24.65625 -54.578125 L 35.640625 -54.578125 L 23.765625 -29.609375 L 24.328125 0 L 13.015625 0 L 13.15625 -26.421875 L 7.046875 0 Z M -3.8125 0 "/></g></g></g><g fill="#ffffff" fill-opacity="1"><g transform="translate(60.056656, 84.63303)"><g><path d="M 0.859375 -6.875 L 3 -6.875 C 3.976562 -6.875 4.6875 -6.734375 5.125 -6.453125 C 5.5625 -6.179688 5.78125 -5.738281 5.78125 -5.125 C 5.78125 -4.71875 5.679688 -4.382812 5.484375 -4.125 C 5.296875 -3.863281 5.046875 -3.703125 4.734375 -3.640625 L 4.734375 -3.59375 C 5.160156 -3.5 5.46875 -3.316406 5.65625 -3.046875 C 5.851562 -2.785156 5.953125 -2.4375 5.953125 -2 C 5.953125 -1.363281 5.722656 -0.867188 5.265625 -0.515625 C 4.816406 -0.171875 4.207031 0 3.4375 0 L 0.859375 0 Z M 2.328125 -4.15625 L 3.171875 -4.15625 C 3.566406 -4.15625 3.851562 -4.210938 4.03125 -4.328125 C 4.207031 -4.453125 4.296875 -4.65625 4.296875 -4.9375 C 4.296875 -5.195312 4.195312 -5.382812 4 -5.5 C 3.8125 -5.613281 3.507812 -5.671875 3.09375 -5.671875 L 2.328125 -5.671875 Z M 2.328125 -3 L 2.328125 -1.203125 L 3.265625 -1.203125 C 3.671875 -1.203125 3.96875 -1.273438 4.15625 -1.421875 C 4.351562 -1.578125 4.453125 -1.816406 4.453125 -2.140625 C 4.453125 -2.710938 4.039062 -3 3.21875 -3 Z M 2.328125 -3 "/></g></g></g><g fill="#ffffff" fill-opacity="1"><g transform="translate(70.576228, 84.63303)"><g><path d="M 5.078125 0 L 4.578125 -1.640625 L 2.0625 -1.640625 L 1.5625 0 L 0 0 L 2.421875 -6.90625 L 4.203125 -6.90625 L 6.640625 0 Z M 4.21875 -2.859375 C 3.757812 -4.335938 3.5 -5.171875 3.4375 -5.359375 C 3.382812 -5.554688 3.347656 -5.710938 3.328125 -5.828125 C 3.222656 -5.429688 2.925781 -4.441406 2.4375 -2.859375 Z M 4.21875 -2.859375 "/></g></g></g><g fill="#ffffff" fill-opacity="1"><g transform="translate(81.269624, 84.63303)"><g><path d="M 3.515625 0 L 2.0625 0 L 2.0625 -5.65625 L 0.1875 -5.65625 L 0.1875 -6.875 L 5.375 -6.875 L 5.375 -5.65625 L 3.515625 -5.65625 Z M 3.515625 0 "/></g></g></g><g fill="#ffffff" fill-opacity="1"><g transform="translate(90.896616, 84.63303)"><g><path d="M 3.515625 0 L 2.0625 0 L 2.0625 -5.65625 L 0.1875 -5.65625 L 0.1875 -6.875 L 5.375 -6.875 L 5.375 -5.65625 L 3.515625 -5.65625 Z M 3.515625 0 "/></g></g></g><g fill="#ffffff" fill-opacity="1"><g transform="translate(100.523604, 84.63303)"><g><path d="M 4.828125 0 L 0.859375 0 L 0.859375 -6.875 L 4.828125 -6.875 L 4.828125 -5.671875 L 2.328125 -5.671875 L 2.328125 -4.171875 L 4.640625 -4.171875 L 4.640625 -2.96875 L 2.328125 -2.96875 L 2.328125 -1.203125 L 4.828125 -1.203125 Z M 4.828125 0 "/></g></g></g><g fill="#ffffff" fill-opacity="1"><g transform="translate(109.967384, 84.63303)"><g><path d="M 2.328125 -3.828125 L 2.796875 -3.828125 C 3.253906 -3.828125 3.59375 -3.898438 3.8125 -4.046875 C 4.03125 -4.203125 4.140625 -4.445312 4.140625 -4.78125 C 4.140625 -5.101562 4.023438 -5.332031 3.796875 -5.46875 C 3.578125 -5.601562 3.234375 -5.671875 2.765625 -5.671875 L 2.328125 -5.671875 Z M 2.328125 -2.640625 L 2.328125 0 L 0.859375 0 L 0.859375 -6.875 L 2.859375 -6.875 C 3.796875 -6.875 4.488281 -6.703125 4.9375 -6.359375 C 5.382812 -6.015625 5.609375 -5.5 5.609375 -4.8125 C 5.609375 -4.40625 5.492188 -4.046875 5.265625 -3.734375 C 5.046875 -3.421875 4.734375 -3.175781 4.328125 -3 C 5.367188 -1.445312 6.046875 -0.445312 6.359375 0 L 4.734375 0 L 3.09375 -2.640625 Z M 2.328125 -2.640625 "/></g></g></g><g fill="#ffffff" fill-opacity="1"><g transform="translate(120.374208, 84.63303)"><g><path d="M 3 -4.046875 L 4.4375 -6.875 L 6 -6.875 L 3.734375 -2.671875 L 3.734375 0 L 2.28125 0 L 2.28125 -2.625 L 0 -6.875 L 1.578125 -6.875 Z M 3 -4.046875 "/></g></g></g><g fill="#ffffff" fill-opacity="1"><g transform="translate(130.433394, 84.63303)"><g/></g></g><g fill="#ffffff" fill-opacity="1"><g transform="translate(136.988021, 84.63303)"><g><path d="M 3.78125 0 L 2.125 -5.390625 L 2.078125 -5.390625 C 2.140625 -4.296875 2.171875 -3.566406 2.171875 -3.203125 L 2.171875 0 L 0.859375 0 L 0.859375 -6.875 L 2.84375 -6.875 L 4.46875 -1.609375 L 4.5 -1.609375 L 6.234375 -6.875 L 8.203125 -6.875 L 8.203125 0 L 6.859375 0 L 6.859375 -3.25 C 6.859375 -3.40625 6.859375 -3.582031 6.859375 -3.78125 C 6.859375 -3.976562 6.878906 -4.507812 6.921875 -5.375 L 6.875 -5.375 L 5.109375 0 Z M 3.78125 0 "/></g></g></g><g fill="#ffffff" fill-opacity="1"><g transform="translate(150.114876, 84.63303)"><g><path d="M 7.09375 -3.4375 C 7.09375 -2.300781 6.8125 -1.425781 6.25 -0.8125 C 5.6875 -0.207031 4.878906 0.09375 3.828125 0.09375 C 2.773438 0.09375 1.96875 -0.207031 1.40625 -0.8125 C 0.84375 -1.425781 0.5625 -2.304688 0.5625 -3.453125 C 0.5625 -4.597656 0.84375 -5.472656 1.40625 -6.078125 C 1.96875 -6.679688 2.78125 -6.984375 3.84375 -6.984375 C 4.894531 -6.984375 5.695312 -6.675781 6.25 -6.0625 C 6.8125 -5.457031 7.09375 -4.582031 7.09375 -3.4375 Z M 2.09375 -3.4375 C 2.09375 -2.675781 2.234375 -2.097656 2.515625 -1.703125 C 2.804688 -1.316406 3.242188 -1.125 3.828125 -1.125 C 4.992188 -1.125 5.578125 -1.894531 5.578125 -3.4375 C 5.578125 -4.988281 5 -5.765625 3.84375 -5.765625 C 3.257812 -5.765625 2.820312 -5.566406 2.53125 -5.171875 C 2.238281 -4.785156 2.09375 -4.207031 2.09375 -3.4375 Z M 2.09375 -3.4375 "/></g></g></g><g fill="#ffffff" fill-opacity="1"><g transform="translate(161.827694, 84.63303)"><g><path d="M 6.953125 0 L 5.109375 0 L 2.125 -5.203125 L 2.078125 -5.203125 C 2.140625 -4.285156 2.171875 -3.628906 2.171875 -3.234375 L 2.171875 0 L 0.859375 0 L 0.859375 -6.875 L 2.703125 -6.875 L 5.6875 -1.71875 L 5.71875 -1.71875 C 5.675781 -2.613281 5.65625 -3.25 5.65625 -3.625 L 5.65625 -6.875 L 6.953125 -6.875 Z M 6.953125 0 "/></g></g></g><g fill="#ffffff" fill-opacity="1"><g transform="translate(173.704934, 84.63303)"><g><path d="M 0.859375 0 L 0.859375 -6.875 L 2.328125 -6.875 L 2.328125 0 Z M 0.859375 0 "/></g></g></g><g fill="#ffffff" fill-opacity="1"><g transform="translate(180.94544, 84.63303)"><g><path d="M 3.515625 0 L 2.0625 0 L 2.0625 -5.65625 L 0.1875 -5.65625 L 0.1875 -6.875 L 5.375 -6.875 L 5.375 -5.65625 L 3.515625 -5.65625 Z M 3.515625 0 "/></g></g></g><g fill="#ffffff" fill-opacity="1"><g transform="translate(190.572429, 84.63303)"><g><path d="M 7.09375 -3.4375 C 7.09375 -2.300781 6.8125 -1.425781 6.25 -0.8125 C 5.6875 -0.207031 4.878906 0.09375 3.828125 0.09375 C 2.773438 0.09375 1.96875 -0.207031 1.40625 -0.8125 C 0.84375 -1.425781 0.5625 -2.304688 0.5625 -3.453125 C 0.5625 -4.597656 0.84375 -5.472656 1.40625 -6.078125 C 1.96875 -6.679688 2.78125 -6.984375 3.84375 -6.984375 C 4.894531 -6.984375 5.695312 -6.675781 6.25 -6.0625 C 6.8125 -5.457031 7.09375 -4.582031 7.09375 -3.4375 Z M 2.09375 -3.4375 C 2.09375 -2.675781 2.234375 -2.097656 2.515625 -1.703125 C 2.804688 -1.316406 3.242188 -1.125 3.828125 -1.125 C 4.992188 -1.125 5.578125 -1.894531 5.578125 -3.4375 C 5.578125 -4.988281 5 -5.765625 3.84375 -5.765625 C 3.257812 -5.765625 2.820312 -5.566406 2.53125 -5.171875 C 2.238281 -4.785156 2.09375 -4.207031 2.09375 -3.4375 Z M 2.09375 -3.4375 "/></g></g></g><g fill="#ffffff" fill-opacity="1"><g transform="translate(202.285241, 84.63303)"><g><path d="M 2.328125 -3.828125 L 2.796875 -3.828125 C 3.253906 -3.828125 3.59375 -3.898438 3.8125 -4.046875 C 4.03125 -4.203125 4.140625 -4.445312 4.140625 -4.78125 C 4.140625 -5.101562 4.023438 -5.332031 3.796875 -5.46875 C 3.578125 -5.601562 3.234375 -5.671875 2.765625 -5.671875 L 2.328125 -5.671875 Z M 2.328125 -2.640625 L 2.328125 0 L 0.859375 0 L 0.859375 -6.875 L 2.859375 -6.875 C 3.796875 -6.875 4.488281 -6.703125 4.9375 -6.359375 C 5.382812 -6.015625 5.609375 -5.5 5.609375 -4.8125 C 5.609375 -4.40625 5.492188 -4.046875 5.265625 -3.734375 C 5.046875 -3.421875 4.734375 -3.175781 4.328125 -3 C 5.367188 -1.445312 6.046875 -0.445312 6.359375 0 L 4.734375 0 L 3.09375 -2.640625 Z M 2.328125 -2.640625 "/></g></g></g><g fill="#ffffff" fill-opacity="1"><g transform="translate(212.692064, 84.63303)"><g><path d="M 0.859375 0 L 0.859375 -6.875 L 2.328125 -6.875 L 2.328125 0 Z M 0.859375 0 "/></g></g></g><g fill="#ffffff" fill-opacity="1"><g transform="translate(219.93257, 84.63303)"><g><path d="M 6.953125 0 L 5.109375 0 L 2.125 -5.203125 L 2.078125 -5.203125 C 2.140625 -4.285156 2.171875 -3.628906 2.171875 -3.234375 L 2.171875 0 L 0.859375 0 L 0.859375 -6.875 L 2.703125 -6.875 L 5.6875 -1.71875 L 5.71875 -1.71875 C 5.675781 -2.613281 5.65625 -3.25 5.65625 -3.625 L 5.65625 -6.875 L 6.953125 -6.875 Z M 6.953125 0 "/></g></g></g><g fill="#ffffff" fill-opacity="1"><g transform="translate(231.80981, 84.63303)"><g><path d="M 3.46875 -3.859375 L 6.203125 -3.859375 L 6.203125 -0.296875 C 5.753906 -0.148438 5.332031 -0.0507812 4.9375 0 C 4.550781 0.0625 4.15625 0.09375 3.75 0.09375 C 2.71875 0.09375 1.925781 -0.207031 1.375 -0.8125 C 0.832031 -1.425781 0.5625 -2.300781 0.5625 -3.4375 C 0.5625 -4.550781 0.878906 -5.414062 1.515625 -6.03125 C 2.148438 -6.65625 3.03125 -6.96875 4.15625 -6.96875 C 4.851562 -6.96875 5.53125 -6.828125 6.1875 -6.546875 L 5.703125 -5.375 C 5.203125 -5.625 4.679688 -5.75 4.140625 -5.75 C 3.515625 -5.75 3.007812 -5.535156 2.625 -5.109375 C 2.25 -4.691406 2.0625 -4.128906 2.0625 -3.421875 C 2.0625 -2.671875 2.210938 -2.097656 2.515625 -1.703125 C 2.816406 -1.316406 3.257812 -1.125 3.84375 -1.125 C 4.15625 -1.125 4.46875 -1.15625 4.78125 -1.21875 L 4.78125 -2.640625 L 3.46875 -2.640625 Z M 3.46875 -3.859375 "/></g></g></g><g fill="#ffffff" fill-opacity="1"><g transform="translate(242.832051, 84.63303)"><g/></g></g><g fill="#ffffff" fill-opacity="1"><g transform="translate(249.386679, 84.63303)"><g><path d="M 4.921875 -1.90625 C 4.921875 -1.289062 4.695312 -0.800781 4.25 -0.4375 C 3.800781 -0.0820312 3.179688 0.09375 2.390625 0.09375 C 1.648438 0.09375 1 -0.0390625 0.4375 -0.3125 L 0.4375 -1.671875 C 0.90625 -1.460938 1.296875 -1.316406 1.609375 -1.234375 C 1.929688 -1.148438 2.226562 -1.109375 2.5 -1.109375 C 2.820312 -1.109375 3.066406 -1.164062 3.234375 -1.28125 C 3.398438 -1.40625 3.484375 -1.59375 3.484375 -1.84375 C 3.484375 -1.976562 3.445312 -2.097656 3.375 -2.203125 C 3.300781 -2.304688 3.191406 -2.40625 3.046875 -2.5 C 2.898438 -2.59375 2.601562 -2.75 2.15625 -2.96875 C 1.738281 -3.164062 1.421875 -3.351562 1.203125 -3.53125 C 0.992188 -3.71875 0.828125 -3.929688 0.703125 -4.171875 C 0.578125 -4.410156 0.515625 -4.691406 0.515625 -5.015625 C 0.515625 -5.617188 0.71875 -6.09375 1.125 -6.4375 C 1.539062 -6.789062 2.113281 -6.96875 2.84375 -6.96875 C 3.207031 -6.96875 3.550781 -6.925781 3.875 -6.84375 C 4.195312 -6.757812 4.535156 -6.640625 4.890625 -6.484375 L 4.421875 -5.359375 C 4.054688 -5.503906 3.753906 -5.601562 3.515625 -5.65625 C 3.273438 -5.71875 3.035156 -5.75 2.796875 -5.75 C 2.523438 -5.75 2.316406 -5.6875 2.171875 -5.5625 C 2.023438 -5.4375 1.953125 -5.269531 1.953125 -5.0625 C 1.953125 -4.9375 1.976562 -4.820312 2.03125 -4.71875 C 2.09375 -4.625 2.1875 -4.53125 2.3125 -4.4375 C 2.445312 -4.351562 2.757812 -4.195312 3.25 -3.96875 C 3.882812 -3.65625 4.320312 -3.34375 4.5625 -3.03125 C 4.800781 -2.726562 4.921875 -2.351562 4.921875 -1.90625 Z M 4.921875 -1.90625 "/></g></g></g><g fill="#ffffff" fill-opacity="1"><g transform="translate(258.741195, 84.63303)"><g><path d="M 3 -4.046875 L 4.4375 -6.875 L 6 -6.875 L 3.734375 -2.671875 L 3.734375 0 L 2.28125 0 L 2.28125 -2.625 L 0 -6.875 L 1.578125 -6.875 Z M 3 -4.046875 "/></g></g></g><g fill="#ffffff" fill-opacity="1"><g transform="translate(268.800392, 84.63303)"><g><path d="M 4.921875 -1.90625 C 4.921875 -1.289062 4.695312 -0.800781 4.25 -0.4375 C 3.800781 -0.0820312 3.179688 0.09375 2.390625 0.09375 C 1.648438 0.09375 1 -0.0390625 0.4375 -0.3125 L 0.4375 -1.671875 C 0.90625 -1.460938 1.296875 -1.316406 1.609375 -1.234375 C 1.929688 -1.148438 2.226562 -1.109375 2.5 -1.109375 C 2.820312 -1.109375 3.066406 -1.164062 3.234375 -1.28125 C 3.398438 -1.40625 3.484375 -1.59375 3.484375 -1.84375 C 3.484375 -1.976562 3.445312 -2.097656 3.375 -2.203125 C 3.300781 -2.304688 3.191406 -2.40625 3.046875 -2.5 C 2.898438 -2.59375 2.601562 -2.75 2.15625 -2.96875 C 1.738281 -3.164062 1.421875 -3.351562 1.203125 -3.53125 C 0.992188 -3.71875 0.828125 -3.929688 0.703125 -4.171875 C 0.578125 -4.410156 0.515625 -4.691406 0.515625 -5.015625 C 0.515625 -5.617188 0.71875 -6.09375 1.125 -6.4375 C 1.539062 -6.789062 2.113281 -6.96875 2.84375 -6.96875 C 3.207031 -6.96875 3.550781 -6.925781 3.875 -6.84375 C 4.195312 -6.757812 4.535156 -6.640625 4.890625 -6.484375 L 4.421875 -5.359375 C 4.054688 -5.503906 3.753906 -5.601562 3.515625 -5.65625 C 3.273438 -5.71875 3.035156 -5.75 2.796875 -5.75 C 2.523438 -5.75 2.316406 -5.6875 2.171875 -5.5625 C 2.023438 -5.4375 1.953125 -5.269531 1.953125 -5.0625 C 1.953125 -4.9375 1.976562 -4.820312 2.03125 -4.71875 C 2.09375 -4.625 2.1875 -4.53125 2.3125 -4.4375 C 2.445312 -4.351562 2.757812 -4.195312 3.25 -3.96875 C 3.882812 -3.65625 4.320312 -3.34375 4.5625 -3.03125 C 4.800781 -2.726562 4.921875 -2.351562 4.921875 -1.90625 Z M 4.921875 -1.90625 "/></g></g></g><g fill="#ffffff" fill-opacity="1"><g transform="translate(278.154908, 84.63303)"><g><path d="M 3.515625 0 L 2.0625 0 L 2.0625 -5.65625 L 0.1875 -5.65625 L 0.1875 -6.875 L 5.375 -6.875 L 5.375 -5.65625 L 3.515625 -5.65625 Z M 3.515625 0 "/></g></g></g><g fill="#ffffff" fill-opacity="1"><g transform="translate(287.781908, 84.63303)"><g><path d="M 4.828125 0 L 0.859375 0 L 0.859375 -6.875 L 4.828125 -6.875 L 4.828125 -5.671875 L 2.328125 -5.671875 L 2.328125 -4.171875 L 4.640625 -4.171875 L 4.640625 -2.96875 L 2.328125 -2.96875 L 2.328125 -1.203125 L 4.828125 -1.203125 Z M 4.828125 0 "/></g></g></g><g fill="#ffffff" fill-opacity="1"><g transform="translate(297.225688, 84.63303)"><g><path d="M 3.78125 0 L 2.125 -5.390625 L 2.078125 -5.390625 C 2.140625 -4.296875 2.171875 -3.566406 2.171875 -3.203125 L 2.171875 0 L 0.859375 0 L 0.859375 -6.875 L 2.84375 -6.875 L 4.46875 -1.609375 L 4.5 -1.609375 L 6.234375 -6.875 L 8.203125 -6.875 L 8.203125 0 L 6.859375 0 L 6.859375 -3.25 C 6.859375 -3.40625 6.859375 -3.582031 6.859375 -3.78125 C 6.859375 -3.976562 6.878906 -4.507812 6.921875 -5.375 L 6.875 -5.375 L 5.109375 0 Z M 3.78125 0 "/></g></g></g><g fill="#ffffff" fill-opacity="1"><g transform="translate(310.357468, 84.63303)"><g/></g></g></svg>