<svg xmlns="http://www.w3.org/2000/svg" xmlns:xlink="http://www.w3.org/1999/xlink" width="250" zoomAndPan="magnify" viewBox="0 0 187.5 56.249996" height="75" preserveAspectRatio="xMidYMid meet" version="1.0"><defs><g/><clipPath id="95c56f40dc"><path d="M 62 10 L 74 10 L 74 42 L 62 42 Z M 62 10 " clip-rule="nonzero"/></clipPath><clipPath id="43f1c54a0b"><path d="M 58.113281 13.359375 L 71.640625 9.527344 L 79.507812 37.296875 L 65.976562 41.132812 Z M 58.113281 13.359375 " clip-rule="nonzero"/></clipPath><clipPath id="682cb478ce"><path d="M 58.113281 13.359375 L 71.640625 9.527344 L 79.507812 37.296875 L 65.976562 41.132812 Z M 58.113281 13.359375 " clip-rule="nonzero"/></clipPath><clipPath id="b0de79277b"><path d="M 62 12 L 69 12 L 69 42 L 62 42 Z M 62 12 " clip-rule="nonzero"/></clipPath><clipPath id="5422774b79"><path d="M 58.113281 13.359375 L 71.640625 9.527344 L 79.507812 37.296875 L 65.976562 41.132812 Z M 58.113281 13.359375 " clip-rule="nonzero"/></clipPath><clipPath id="9c9fdf3848"><path d="M 58.113281 13.359375 L 71.640625 9.527344 L 79.507812 37.296875 L 65.976562 41.132812 Z M 58.113281 13.359375 " clip-rule="nonzero"/></clipPath></defs><g fill="#ffffff" fill-opacity="1"><g transform="translate(25.269015, 37.933378)"><g><path d="M 3.671875 0 L 0.34375 -26.953125 L 5.484375 -26.953125 L 7.453125 -8.625 L 9.21875 -26.953125 L 14.359375 -26.953125 L 11.03125 0 Z M 3.671875 0 "/></g></g></g><g fill="#ffffff" fill-opacity="1"><g transform="translate(43.823248, 37.933378)"><g><path d="M 7.609375 0.25 C 5.441406 0.25 3.789062 -0.410156 2.65625 -1.734375 C 1.53125 -3.066406 0.96875 -4.929688 0.96875 -7.328125 L 0.96875 -20.15625 C 0.96875 -22.476562 1.53125 -24.226562 2.65625 -25.40625 C 3.789062 -26.582031 5.441406 -27.171875 7.609375 -27.171875 C 9.785156 -27.171875 11.4375 -26.582031 12.5625 -25.40625 C 13.695312 -24.226562 14.265625 -22.476562 14.265625 -20.15625 L 14.265625 -7.328125 C 14.265625 -4.910156 13.695312 -3.039062 12.5625 -1.71875 C 11.4375 -0.40625 9.785156 0.25 7.609375 0.25 Z M 7.609375 -4.703125 C 8.097656 -4.703125 8.425781 -4.910156 8.59375 -5.328125 C 8.757812 -5.742188 8.84375 -6.328125 8.84375 -7.078125 L 8.84375 -20.25 C 8.84375 -20.832031 8.765625 -21.304688 8.609375 -21.671875 C 8.453125 -22.035156 8.128906 -22.21875 7.640625 -22.21875 C 6.742188 -22.21875 6.296875 -21.539062 6.296875 -20.1875 L 6.296875 -7.046875 C 6.296875 -6.273438 6.390625 -5.691406 6.578125 -5.296875 C 6.765625 -4.898438 7.109375 -4.703125 7.609375 -4.703125 Z M 7.609375 -4.703125 "/></g></g></g><g fill="#ffffff" fill-opacity="1"><g transform="translate(62.910265, 37.933378)"><g/></g></g><g fill="#ffffff" fill-opacity="1"><g transform="translate(74.099595, 37.933378)"><g><path d="M 3.515625 0 L 3.515625 -21.75 L 0.3125 -21.75 L 0.3125 -26.921875 L 12.09375 -26.921875 L 12.09375 -21.75 L 8.90625 -21.75 L 8.90625 0 Z M 3.515625 0 "/></g></g></g><g fill="#ffffff" fill-opacity="1"><g transform="translate(90.366011, 37.933378)"><g><path d="M 1.1875 -26.921875 L 9.46875 -26.921875 C 10.78125 -26.921875 11.796875 -26.625 12.515625 -26.03125 C 13.242188 -25.4375 13.734375 -24.597656 13.984375 -23.515625 C 14.234375 -22.441406 14.359375 -21.070312 14.359375 -19.40625 C 14.359375 -17.875 14.160156 -16.679688 13.765625 -15.828125 C 13.367188 -14.972656 12.675781 -14.378906 11.6875 -14.046875 C 12.5 -13.878906 13.085938 -13.46875 13.453125 -12.8125 C 13.828125 -12.164062 14.015625 -11.289062 14.015625 -10.1875 L 13.953125 0 L 8.6875 0 L 8.6875 -10.53125 C 8.6875 -11.28125 8.535156 -11.757812 8.234375 -11.96875 C 7.941406 -12.175781 7.410156 -12.28125 6.640625 -12.28125 L 6.640625 0 L 1.1875 0 Z M 7.96875 -16.953125 C 8.71875 -16.953125 9.09375 -17.769531 9.09375 -19.40625 C 9.09375 -20.113281 9.0625 -20.644531 9 -21 C 8.9375 -21.351562 8.820312 -21.597656 8.65625 -21.734375 C 8.488281 -21.867188 8.25 -21.9375 7.9375 -21.9375 L 6.671875 -21.9375 L 6.671875 -16.953125 Z M 7.96875 -16.953125 "/></g></g></g><g fill="#ffffff" fill-opacity="1"><g transform="translate(109.17096, 37.933378)"><g><path d="M 0.46875 0 L 3.078125 -26.921875 L 12.1875 -26.921875 L 14.765625 0 L 9.65625 0 L 9.28125 -4.359375 L 6.015625 -4.359375 L 5.703125 0 Z M 6.421875 -8.65625 L 8.875 -8.65625 L 7.671875 -22.34375 L 7.421875 -22.34375 Z M 6.421875 -8.65625 "/></g></g></g><g fill="#ffffff" fill-opacity="1"><g transform="translate(128.226641, 37.933378)"><g><path d="M 7.453125 0.25 C 5.492188 0.25 3.921875 -0.363281 2.734375 -1.59375 C 1.554688 -2.832031 0.96875 -4.523438 0.96875 -6.671875 L 0.96875 -19.09375 C 0.96875 -21.757812 1.5 -23.769531 2.5625 -25.125 C 3.632812 -26.488281 5.304688 -27.171875 7.578125 -27.171875 C 9.566406 -27.171875 11.164062 -26.628906 12.375 -25.546875 C 13.59375 -24.460938 14.203125 -22.894531 14.203125 -20.84375 L 14.203125 -16.203125 L 8.84375 -16.203125 L 8.84375 -20.1875 C 8.84375 -20.957031 8.75 -21.488281 8.5625 -21.78125 C 8.375 -22.070312 8.046875 -22.21875 7.578125 -22.21875 C 7.097656 -22.21875 6.769531 -22.050781 6.59375 -21.71875 C 6.414062 -21.382812 6.328125 -20.894531 6.328125 -20.25 L 6.328125 -6.734375 C 6.328125 -6.023438 6.429688 -5.507812 6.640625 -5.1875 C 6.847656 -4.863281 7.160156 -4.703125 7.578125 -4.703125 C 8.421875 -4.703125 8.84375 -5.378906 8.84375 -6.734375 L 8.84375 -11.59375 L 14.265625 -11.59375 L 14.265625 -6.515625 C 14.265625 -2.003906 11.992188 0.25 7.453125 0.25 Z M 7.453125 0.25 "/></g></g></g><g fill="#ffffff" fill-opacity="1"><g transform="translate(146.937571, 37.933378)"><g><path d="M 1.1875 0 L 1.1875 -26.921875 L 6.515625 -26.921875 L 6.515625 -16.140625 L 9.03125 -26.921875 L 14.453125 -26.921875 L 11.4375 -14.609375 L 15.078125 0 L 9.5 0 L 6.546875 -13.03125 L 6.546875 0 Z M 1.1875 0 "/></g></g></g><g clip-path="url(#95c56f40dc)"><g clip-path="url(#43f1c54a0b)"><g clip-path="url(#682cb478ce)"><path fill="#38b6ff" d="M 68.585938 10.703125 L 67.890625 19.0625 L 73.425781 16.542969 L 65.988281 41.160156 L 67.050781 26 L 63.066406 27.703125 L 62.679688 12.378906 Z M 68.585938 10.703125 " fill-opacity="1" fill-rule="nonzero"/></g></g></g><g clip-path="url(#b0de79277b)"><g clip-path="url(#5422774b79)"><g clip-path="url(#9c9fdf3848)"><path fill="#000000" d="M 62.679688 12.378906 L 63.742188 12.074219 L 63.066406 27.703125 Z M 65.988281 41.160156 L 68.113281 25.699219 L 67.050781 26 Z M 65.988281 41.160156 " fill-opacity="1" fill-rule="nonzero"/></g></g></g><g fill="#ffffff" fill-opacity="1"><g transform="translate(21.78815, 48.159043)"><g><path d="M 3.859375 0 L 0.6875 0 L 0.6875 -5.515625 L 3.859375 -5.515625 L 3.859375 -4.546875 L 1.859375 -4.546875 L 1.859375 -3.34375 L 3.734375 -3.34375 L 3.734375 -2.390625 L 1.859375 -2.390625 L 1.859375 -0.96875 L 3.859375 -0.96875 Z M 3.859375 0 "/></g></g></g><g fill="#ffffff" fill-opacity="1"><g transform="translate(27.265215, 48.159043)"><g><path d="M 5.578125 0 L 4.09375 0 L 1.703125 -4.171875 L 1.671875 -4.171875 C 1.710938 -3.429688 1.734375 -2.90625 1.734375 -2.59375 L 1.734375 0 L 0.6875 0 L 0.6875 -5.515625 L 2.171875 -5.515625 L 4.5625 -1.390625 L 4.59375 -1.390625 C 4.550781 -2.097656 4.53125 -2.601562 4.53125 -2.90625 L 4.53125 -5.515625 L 5.578125 -5.515625 Z M 5.578125 0 "/></g></g></g><g fill="#ffffff" fill-opacity="1"><g transform="translate(34.693264, 48.159043)"><g><path d="M 3.859375 0 L 0.6875 0 L 0.6875 -5.515625 L 3.859375 -5.515625 L 3.859375 -4.546875 L 1.859375 -4.546875 L 1.859375 -3.34375 L 3.734375 -3.34375 L 3.734375 -2.390625 L 1.859375 -2.390625 L 1.859375 -0.96875 L 3.859375 -0.96875 Z M 3.859375 0 "/></g></g></g><g fill="#ffffff" fill-opacity="1"><g transform="translate(40.17033, 48.159043)"><g><path d="M 1.859375 -3.0625 L 2.234375 -3.0625 C 2.609375 -3.0625 2.882812 -3.125 3.0625 -3.25 C 3.238281 -3.375 3.328125 -3.566406 3.328125 -3.828125 C 3.328125 -4.085938 3.234375 -4.269531 3.046875 -4.375 C 2.867188 -4.488281 2.59375 -4.546875 2.21875 -4.546875 L 1.859375 -4.546875 Z M 1.859375 -2.109375 L 1.859375 0 L 0.6875 0 L 0.6875 -5.515625 L 2.296875 -5.515625 C 3.046875 -5.515625 3.597656 -5.375 3.953125 -5.09375 C 4.316406 -4.820312 4.5 -4.410156 4.5 -3.859375 C 4.5 -3.535156 4.410156 -3.242188 4.234375 -2.984375 C 4.054688 -2.734375 3.800781 -2.539062 3.46875 -2.40625 C 4.300781 -1.164062 4.84375 -0.363281 5.09375 0 L 3.796875 0 L 2.484375 -2.109375 Z M 1.859375 -2.109375 "/></g></g></g><g fill="#ffffff" fill-opacity="1"><g transform="translate(46.419502, 48.159043)"><g><path d="M 2.78125 -3.09375 L 4.96875 -3.09375 L 4.96875 -0.234375 C 4.613281 -0.117188 4.28125 -0.0390625 3.96875 0 C 3.65625 0.0507812 3.335938 0.078125 3.015625 0.078125 C 2.179688 0.078125 1.546875 -0.164062 1.109375 -0.65625 C 0.671875 -1.144531 0.453125 -1.847656 0.453125 -2.765625 C 0.453125 -3.648438 0.703125 -4.34375 1.203125 -4.84375 C 1.710938 -5.34375 2.421875 -5.59375 3.328125 -5.59375 C 3.890625 -5.59375 4.4375 -5.476562 4.96875 -5.25 L 4.578125 -4.3125 C 4.171875 -4.507812 3.753906 -4.609375 3.328125 -4.609375 C 2.816406 -4.609375 2.410156 -4.4375 2.109375 -4.09375 C 1.804688 -3.757812 1.65625 -3.304688 1.65625 -2.734375 C 1.65625 -2.140625 1.773438 -1.679688 2.015625 -1.359375 C 2.265625 -1.046875 2.625 -0.890625 3.09375 -0.890625 C 3.332031 -0.890625 3.578125 -0.914062 3.828125 -0.96875 L 3.828125 -2.125 L 2.78125 -2.125 Z M 2.78125 -3.09375 "/></g></g></g><g fill="#ffffff" fill-opacity="1"><g transform="translate(53.16207, 48.159043)"><g><path d="M 2.40625 -3.234375 L 3.5625 -5.515625 L 4.8125 -5.515625 L 2.984375 -2.140625 L 2.984375 0 L 1.828125 0 L 1.828125 -2.109375 L 0 -5.515625 L 1.265625 -5.515625 Z M 2.40625 -3.234375 "/></g></g></g><g fill="#ffffff" fill-opacity="1"><g transform="translate(59.13253, 48.159043)"><g/></g></g><g fill="#ffffff" fill-opacity="1"><g transform="translate(62.293273, 48.159043)"><g><path d="M 3.03125 0 L 1.703125 -4.328125 L 1.671875 -4.328125 C 1.710938 -3.441406 1.734375 -2.851562 1.734375 -2.5625 L 1.734375 0 L 0.6875 0 L 0.6875 -5.515625 L 2.28125 -5.515625 L 3.59375 -1.296875 L 3.609375 -1.296875 L 5 -5.515625 L 6.578125 -5.515625 L 6.578125 0 L 5.5 0 L 5.5 -2.609375 C 5.5 -2.734375 5.5 -2.875 5.5 -3.03125 C 5.5 -3.195312 5.515625 -3.625 5.546875 -4.3125 L 5.515625 -4.3125 L 4.09375 0 Z M 3.03125 0 "/></g></g></g><g fill="#ffffff" fill-opacity="1"><g transform="translate(70.72318, 48.159043)"><g><path d="M 5.6875 -2.765625 C 5.6875 -1.847656 5.460938 -1.144531 5.015625 -0.65625 C 4.566406 -0.164062 3.921875 0.078125 3.078125 0.078125 C 2.234375 0.078125 1.582031 -0.164062 1.125 -0.65625 C 0.675781 -1.144531 0.453125 -1.847656 0.453125 -2.765625 C 0.453125 -3.679688 0.675781 -4.378906 1.125 -4.859375 C 1.582031 -5.347656 2.234375 -5.59375 3.078125 -5.59375 C 3.921875 -5.59375 4.566406 -5.347656 5.015625 -4.859375 C 5.460938 -4.378906 5.6875 -3.679688 5.6875 -2.765625 Z M 1.671875 -2.765625 C 1.671875 -2.148438 1.785156 -1.6875 2.015625 -1.375 C 2.253906 -1.0625 2.609375 -0.90625 3.078125 -0.90625 C 4.003906 -0.90625 4.46875 -1.523438 4.46875 -2.765625 C 4.46875 -4.003906 4.003906 -4.625 3.078125 -4.625 C 2.609375 -4.625 2.253906 -4.46875 2.015625 -4.15625 C 1.785156 -3.84375 1.671875 -3.378906 1.671875 -2.765625 Z M 1.671875 -2.765625 "/></g></g></g><g fill="#ffffff" fill-opacity="1"><g transform="translate(78.019407, 48.159043)"><g><path d="M 5.578125 0 L 4.09375 0 L 1.703125 -4.171875 L 1.671875 -4.171875 C 1.710938 -3.429688 1.734375 -2.90625 1.734375 -2.59375 L 1.734375 0 L 0.6875 0 L 0.6875 -5.515625 L 2.171875 -5.515625 L 4.5625 -1.390625 L 4.59375 -1.390625 C 4.550781 -2.097656 4.53125 -2.601562 4.53125 -2.90625 L 4.53125 -5.515625 L 5.578125 -5.515625 Z M 5.578125 0 "/></g></g></g><g fill="#ffffff" fill-opacity="1"><g transform="translate(85.447458, 48.159043)"><g><path d="M 0.6875 0 L 0.6875 -5.515625 L 1.859375 -5.515625 L 1.859375 0 Z M 0.6875 0 "/></g></g></g><g fill="#ffffff" fill-opacity="1"><g transform="translate(89.158094, 48.159043)"><g><path d="M 2.8125 0 L 1.65625 0 L 1.65625 -4.53125 L 0.15625 -4.53125 L 0.15625 -5.515625 L 4.3125 -5.515625 L 4.3125 -4.53125 L 2.8125 -4.53125 Z M 2.8125 0 "/></g></g></g><g fill="#ffffff" fill-opacity="1"><g transform="translate(94.78205, 48.159043)"><g><path d="M 5.6875 -2.765625 C 5.6875 -1.847656 5.460938 -1.144531 5.015625 -0.65625 C 4.566406 -0.164062 3.921875 0.078125 3.078125 0.078125 C 2.234375 0.078125 1.582031 -0.164062 1.125 -0.65625 C 0.675781 -1.144531 0.453125 -1.847656 0.453125 -2.765625 C 0.453125 -3.679688 0.675781 -4.378906 1.125 -4.859375 C 1.582031 -5.347656 2.234375 -5.59375 3.078125 -5.59375 C 3.921875 -5.59375 4.566406 -5.347656 5.015625 -4.859375 C 5.460938 -4.378906 5.6875 -3.679688 5.6875 -2.765625 Z M 1.671875 -2.765625 C 1.671875 -2.148438 1.785156 -1.6875 2.015625 -1.375 C 2.253906 -1.0625 2.609375 -0.90625 3.078125 -0.90625 C 4.003906 -0.90625 4.46875 -1.523438 4.46875 -2.765625 C 4.46875 -4.003906 4.003906 -4.625 3.078125 -4.625 C 2.609375 -4.625 2.253906 -4.46875 2.015625 -4.15625 C 1.785156 -3.84375 1.671875 -3.378906 1.671875 -2.765625 Z M 1.671875 -2.765625 "/></g></g></g><g fill="#ffffff" fill-opacity="1"><g transform="translate(102.078277, 48.159043)"><g><path d="M 1.859375 -3.0625 L 2.234375 -3.0625 C 2.609375 -3.0625 2.882812 -3.125 3.0625 -3.25 C 3.238281 -3.375 3.328125 -3.566406 3.328125 -3.828125 C 3.328125 -4.085938 3.234375 -4.269531 3.046875 -4.375 C 2.867188 -4.488281 2.59375 -4.546875 2.21875 -4.546875 L 1.859375 -4.546875 Z M 1.859375 -2.109375 L 1.859375 0 L 0.6875 0 L 0.6875 -5.515625 L 2.296875 -5.515625 C 3.046875 -5.515625 3.597656 -5.375 3.953125 -5.09375 C 4.316406 -4.820312 4.5 -4.410156 4.5 -3.859375 C 4.5 -3.535156 4.410156 -3.242188 4.234375 -2.984375 C 4.054688 -2.734375 3.800781 -2.539062 3.46875 -2.40625 C 4.300781 -1.164062 4.84375 -0.363281 5.09375 0 L 3.796875 0 L 2.484375 -2.109375 Z M 1.859375 -2.109375 "/></g></g></g><g fill="#ffffff" fill-opacity="1"><g transform="translate(108.327447, 48.159043)"><g><path d="M 0.6875 0 L 0.6875 -5.515625 L 1.859375 -5.515625 L 1.859375 0 Z M 0.6875 0 "/></g></g></g><g fill="#ffffff" fill-opacity="1"><g transform="translate(112.038083, 48.159043)"><g><path d="M 5.578125 0 L 4.09375 0 L 1.703125 -4.171875 L 1.671875 -4.171875 C 1.710938 -3.429688 1.734375 -2.90625 1.734375 -2.59375 L 1.734375 0 L 0.6875 0 L 0.6875 -5.515625 L 2.171875 -5.515625 L 4.5625 -1.390625 L 4.59375 -1.390625 C 4.550781 -2.097656 4.53125 -2.601562 4.53125 -2.90625 L 4.53125 -5.515625 L 5.578125 -5.515625 Z M 5.578125 0 "/></g></g></g><g fill="#ffffff" fill-opacity="1"><g transform="translate(119.466134, 48.159043)"><g><path d="M 2.78125 -3.09375 L 4.96875 -3.09375 L 4.96875 -0.234375 C 4.613281 -0.117188 4.28125 -0.0390625 3.96875 0 C 3.65625 0.0507812 3.335938 0.078125 3.015625 0.078125 C 2.179688 0.078125 1.546875 -0.164062 1.109375 -0.65625 C 0.671875 -1.144531 0.453125 -1.847656 0.453125 -2.765625 C 0.453125 -3.648438 0.703125 -4.34375 1.203125 -4.84375 C 1.710938 -5.34375 2.421875 -5.59375 3.328125 -5.59375 C 3.890625 -5.59375 4.4375 -5.476562 4.96875 -5.25 L 4.578125 -4.3125 C 4.171875 -4.507812 3.753906 -4.609375 3.328125 -4.609375 C 2.816406 -4.609375 2.410156 -4.4375 2.109375 -4.09375 C 1.804688 -3.757812 1.65625 -3.304688 1.65625 -2.734375 C 1.65625 -2.140625 1.773438 -1.679688 2.015625 -1.359375 C 2.265625 -1.046875 2.625 -0.890625 3.09375 -0.890625 C 3.332031 -0.890625 3.578125 -0.914062 3.828125 -0.96875 L 3.828125 -2.125 L 2.78125 -2.125 Z M 2.78125 -3.09375 "/></g></g></g><g fill="#ffffff" fill-opacity="1"><g transform="translate(126.208704, 48.159043)"><g/></g></g><g fill="#ffffff" fill-opacity="1"><g transform="translate(129.369449, 48.159043)"><g><path d="M 3.953125 -1.53125 C 3.953125 -1.03125 3.769531 -0.632812 3.40625 -0.34375 C 3.050781 -0.0625 2.554688 0.078125 1.921875 0.078125 C 1.328125 0.078125 0.804688 -0.03125 0.359375 -0.25 L 0.359375 -1.34375 C 0.722656 -1.175781 1.035156 -1.054688 1.296875 -0.984375 C 1.554688 -0.921875 1.789062 -0.890625 2 -0.890625 C 2.257812 -0.890625 2.457031 -0.9375 2.59375 -1.03125 C 2.726562 -1.132812 2.796875 -1.28125 2.796875 -1.46875 C 2.796875 -1.582031 2.765625 -1.679688 2.703125 -1.765625 C 2.648438 -1.847656 2.5625 -1.925781 2.4375 -2 C 2.320312 -2.082031 2.085938 -2.207031 1.734375 -2.375 C 1.390625 -2.53125 1.132812 -2.679688 0.96875 -2.828125 C 0.800781 -2.972656 0.664062 -3.144531 0.5625 -3.34375 C 0.46875 -3.539062 0.421875 -3.765625 0.421875 -4.015625 C 0.421875 -4.503906 0.582031 -4.890625 0.90625 -5.171875 C 1.238281 -5.453125 1.695312 -5.59375 2.28125 -5.59375 C 2.570312 -5.59375 2.847656 -5.554688 3.109375 -5.484375 C 3.367188 -5.421875 3.640625 -5.328125 3.921875 -5.203125 L 3.546875 -4.296875 C 3.253906 -4.410156 3.007812 -4.488281 2.8125 -4.53125 C 2.625 -4.582031 2.4375 -4.609375 2.25 -4.609375 C 2.03125 -4.609375 1.859375 -4.554688 1.734375 -4.453125 C 1.617188 -4.359375 1.5625 -4.226562 1.5625 -4.0625 C 1.5625 -3.957031 1.582031 -3.863281 1.625 -3.78125 C 1.675781 -3.707031 1.753906 -3.632812 1.859375 -3.5625 C 1.960938 -3.488281 2.207031 -3.363281 2.59375 -3.1875 C 3.113281 -2.9375 3.46875 -2.6875 3.65625 -2.4375 C 3.851562 -2.1875 3.953125 -1.882812 3.953125 -1.53125 Z M 3.953125 -1.53125 "/></g></g></g><g fill="#ffffff" fill-opacity="1"><g transform="translate(134.774956, 48.159043)"><g><path d="M 2.40625 -3.234375 L 3.5625 -5.515625 L 4.8125 -5.515625 L 2.984375 -2.140625 L 2.984375 0 L 1.828125 0 L 1.828125 -2.109375 L 0 -5.515625 L 1.265625 -5.515625 Z M 2.40625 -3.234375 "/></g></g></g><g fill="#ffffff" fill-opacity="1"><g transform="translate(140.745418, 48.159043)"><g><path d="M 3.953125 -1.53125 C 3.953125 -1.03125 3.769531 -0.632812 3.40625 -0.34375 C 3.050781 -0.0625 2.554688 0.078125 1.921875 0.078125 C 1.328125 0.078125 0.804688 -0.03125 0.359375 -0.25 L 0.359375 -1.34375 C 0.722656 -1.175781 1.035156 -1.054688 1.296875 -0.984375 C 1.554688 -0.921875 1.789062 -0.890625 2 -0.890625 C 2.257812 -0.890625 2.457031 -0.9375 2.59375 -1.03125 C 2.726562 -1.132812 2.796875 -1.28125 2.796875 -1.46875 C 2.796875 -1.582031 2.765625 -1.679688 2.703125 -1.765625 C 2.648438 -1.847656 2.5625 -1.925781 2.4375 -2 C 2.320312 -2.082031 2.085938 -2.207031 1.734375 -2.375 C 1.390625 -2.53125 1.132812 -2.679688 0.96875 -2.828125 C 0.800781 -2.972656 0.664062 -3.144531 0.5625 -3.34375 C 0.46875 -3.539062 0.421875 -3.765625 0.421875 -4.015625 C 0.421875 -4.503906 0.582031 -4.890625 0.90625 -5.171875 C 1.238281 -5.453125 1.695312 -5.59375 2.28125 -5.59375 C 2.570312 -5.59375 2.847656 -5.554688 3.109375 -5.484375 C 3.367188 -5.421875 3.640625 -5.328125 3.921875 -5.203125 L 3.546875 -4.296875 C 3.253906 -4.410156 3.007812 -4.488281 2.8125 -4.53125 C 2.625 -4.582031 2.4375 -4.609375 2.25 -4.609375 C 2.03125 -4.609375 1.859375 -4.554688 1.734375 -4.453125 C 1.617188 -4.359375 1.5625 -4.226562 1.5625 -4.0625 C 1.5625 -3.957031 1.582031 -3.863281 1.625 -3.78125 C 1.675781 -3.707031 1.753906 -3.632812 1.859375 -3.5625 C 1.960938 -3.488281 2.207031 -3.363281 2.59375 -3.1875 C 3.113281 -2.9375 3.46875 -2.6875 3.65625 -2.4375 C 3.851562 -2.1875 3.953125 -1.882812 3.953125 -1.53125 Z M 3.953125 -1.53125 "/></g></g></g><g fill="#ffffff" fill-opacity="1"><g transform="translate(146.150924, 48.159043)"><g><path d="M 2.8125 0 L 1.65625 0 L 1.65625 -4.53125 L 0.15625 -4.53125 L 0.15625 -5.515625 L 4.3125 -5.515625 L 4.3125 -4.53125 L 2.8125 -4.53125 Z M 2.8125 0 "/></g></g></g><g fill="#ffffff" fill-opacity="1"><g transform="translate(151.77488, 48.159043)"><g><path d="M 3.859375 0 L 0.6875 0 L 0.6875 -5.515625 L 3.859375 -5.515625 L 3.859375 -4.546875 L 1.859375 -4.546875 L 1.859375 -3.34375 L 3.734375 -3.34375 L 3.734375 -2.390625 L 1.859375 -2.390625 L 1.859375 -0.96875 L 3.859375 -0.96875 Z M 3.859375 0 "/></g></g></g><g fill="#ffffff" fill-opacity="1"><g transform="translate(157.251948, 48.159043)"><g><path d="M 3.03125 0 L 1.703125 -4.328125 L 1.671875 -4.328125 C 1.710938 -3.441406 1.734375 -2.851562 1.734375 -2.5625 L 1.734375 0 L 0.6875 0 L 0.6875 -5.515625 L 2.28125 -5.515625 L 3.59375 -1.296875 L 3.609375 -1.296875 L 5 -5.515625 L 6.578125 -5.515625 L 6.578125 0 L 5.5 0 L 5.5 -2.609375 C 5.5 -2.734375 5.5 -2.875 5.5 -3.03125 C 5.5 -3.195312 5.515625 -3.625 5.546875 -4.3125 L 5.515625 -4.3125 L 4.09375 0 Z M 3.03125 0 "/></g></g></g><g fill="#ffffff" fill-opacity="1"><g transform="translate(165.683839, 48.159043)"><g/></g></g></svg>